<?xml version="1.0" encoding="utf-8" standalone="no"?>
<!DOCTYPE svg PUBLIC "-//W3C//DTD SVG 1.1//EN"
  "http://www.w3.org/Graphics/SVG/1.1/DTD/svg11.dtd">
<svg xmlns:xlink="http://www.w3.org/1999/xlink" width="1835.200781pt" height="669.180469pt" viewBox="0 0 1835.200781 669.180469" xmlns="http://www.w3.org/2000/svg" version="1.1">
 <metadata>
  <rdf:RDF xmlns:dc="http://purl.org/dc/elements/1.1/" xmlns:cc="http://creativecommons.org/ns#" xmlns:rdf="http://www.w3.org/1999/02/22-rdf-syntax-ns#">
   <cc:Work>
    <dc:type rdf:resource="http://purl.org/dc/dcmitype/StillImage"/>
    <dc:date>2024-05-27T11:15:41.020854</dc:date>
    <dc:format>image/svg+xml</dc:format>
    <dc:creator>
     <cc:Agent>
      <dc:title>Matplotlib v3.6.3, https://matplotlib.org/</dc:title>
     </cc:Agent>
    </dc:creator>
   </cc:Work>
  </rdf:RDF>
 </metadata>
 <defs>
  <style type="text/css">*{stroke-linejoin: round; stroke-linecap: butt}</style>
 </defs>
 <g id="figure_1">
  <g id="patch_1">
   <path d="M 0 669.180469 
L 1835.200781 669.180469 
L 1835.200781 0 
L 0 0 
z
" style="fill: #ffffff"/>
  </g>
  <g id="axes_1">
   <g id="patch_2">
    <path d="M 154.000781 561.6 
L 1828.000781 561.6 
L 1828.000781 7.2 
L 154.000781 7.2 
z
" style="fill: #eaeaf2"/>
   </g>
   <g id="matplotlib.axis_1">
    <g id="xtick_1">
     <g id="line2d_1">
      <path d="M 230.09169 561.6 
L 230.09169 7.2 
" clip-path="url(#pac26969c63)" style="fill: none; stroke: #ffffff; stroke-linecap: round"/>
     </g>
     <g id="text_1">
      <!-- 0 -->
      <g style="fill: #262626" transform="translate(217.579581 603.310156) scale(0.45 -0.45)">
       <defs>
        <path id="ArialMT-30" d="M 266 2259 
Q 266 3072 433 3567 
Q 600 4063 929 4331 
Q 1259 4600 1759 4600 
Q 2128 4600 2406 4451 
Q 2684 4303 2865 4023 
Q 3047 3744 3150 3342 
Q 3253 2941 3253 2259 
Q 3253 1453 3087 958 
Q 2922 463 2592 192 
Q 2263 -78 1759 -78 
Q 1097 -78 719 397 
Q 266 969 266 2259 
z
M 844 2259 
Q 844 1131 1108 757 
Q 1372 384 1759 384 
Q 2147 384 2411 759 
Q 2675 1134 2675 2259 
Q 2675 3391 2411 3762 
Q 2147 4134 1753 4134 
Q 1366 4134 1134 3806 
Q 844 3388 844 2259 
z
" transform="scale(0.015625)"/>
       </defs>
       <use xlink:href="#ArialMT-30"/>
      </g>
     </g>
    </g>
    <g id="xtick_2">
     <g id="line2d_2">
      <path d="M 534.455327 561.6 
L 534.455327 7.2 
" clip-path="url(#pac26969c63)" style="fill: none; stroke: #ffffff; stroke-linecap: round"/>
     </g>
     <g id="text_2">
      <!-- 200 -->
      <g style="fill: #262626" transform="translate(496.918999 603.310156) scale(0.45 -0.45)">
       <defs>
        <path id="ArialMT-32" d="M 3222 541 
L 3222 0 
L 194 0 
Q 188 203 259 391 
Q 375 700 629 1000 
Q 884 1300 1366 1694 
Q 2113 2306 2375 2664 
Q 2638 3022 2638 3341 
Q 2638 3675 2398 3904 
Q 2159 4134 1775 4134 
Q 1369 4134 1125 3890 
Q 881 3647 878 3216 
L 300 3275 
Q 359 3922 746 4261 
Q 1134 4600 1788 4600 
Q 2447 4600 2831 4234 
Q 3216 3869 3216 3328 
Q 3216 3053 3103 2787 
Q 2991 2522 2730 2228 
Q 2469 1934 1863 1422 
Q 1356 997 1212 845 
Q 1069 694 975 541 
L 3222 541 
z
" transform="scale(0.015625)"/>
       </defs>
       <use xlink:href="#ArialMT-32"/>
       <use xlink:href="#ArialMT-30" x="55.615234"/>
       <use xlink:href="#ArialMT-30" x="111.230469"/>
      </g>
     </g>
    </g>
    <g id="xtick_3">
     <g id="line2d_3">
      <path d="M 838.818963 561.6 
L 838.818963 7.2 
" clip-path="url(#pac26969c63)" style="fill: none; stroke: #ffffff; stroke-linecap: round"/>
     </g>
     <g id="text_3">
      <!-- 400 -->
      <g style="fill: #262626" transform="translate(801.282635 603.310156) scale(0.45 -0.45)">
       <defs>
        <path id="ArialMT-34" d="M 2069 0 
L 2069 1097 
L 81 1097 
L 81 1613 
L 2172 4581 
L 2631 4581 
L 2631 1613 
L 3250 1613 
L 3250 1097 
L 2631 1097 
L 2631 0 
L 2069 0 
z
M 2069 1613 
L 2069 3678 
L 634 1613 
L 2069 1613 
z
" transform="scale(0.015625)"/>
       </defs>
       <use xlink:href="#ArialMT-34"/>
       <use xlink:href="#ArialMT-30" x="55.615234"/>
       <use xlink:href="#ArialMT-30" x="111.230469"/>
      </g>
     </g>
    </g>
    <g id="xtick_4">
     <g id="line2d_4">
      <path d="M 1143.182599 561.6 
L 1143.182599 7.2 
" clip-path="url(#pac26969c63)" style="fill: none; stroke: #ffffff; stroke-linecap: round"/>
     </g>
     <g id="text_4">
      <!-- 600 -->
      <g style="fill: #262626" transform="translate(1105.646271 603.310156) scale(0.45 -0.45)">
       <defs>
        <path id="ArialMT-36" d="M 3184 3459 
L 2625 3416 
Q 2550 3747 2413 3897 
Q 2184 4138 1850 4138 
Q 1581 4138 1378 3988 
Q 1113 3794 959 3422 
Q 806 3050 800 2363 
Q 1003 2672 1297 2822 
Q 1591 2972 1913 2972 
Q 2475 2972 2870 2558 
Q 3266 2144 3266 1488 
Q 3266 1056 3080 686 
Q 2894 316 2569 119 
Q 2244 -78 1831 -78 
Q 1128 -78 684 439 
Q 241 956 241 2144 
Q 241 3472 731 4075 
Q 1159 4600 1884 4600 
Q 2425 4600 2770 4297 
Q 3116 3994 3184 3459 
z
M 888 1484 
Q 888 1194 1011 928 
Q 1134 663 1356 523 
Q 1578 384 1822 384 
Q 2178 384 2434 671 
Q 2691 959 2691 1453 
Q 2691 1928 2437 2201 
Q 2184 2475 1800 2475 
Q 1419 2475 1153 2201 
Q 888 1928 888 1484 
z
" transform="scale(0.015625)"/>
       </defs>
       <use xlink:href="#ArialMT-36"/>
       <use xlink:href="#ArialMT-30" x="55.615234"/>
       <use xlink:href="#ArialMT-30" x="111.230469"/>
      </g>
     </g>
    </g>
    <g id="xtick_5">
     <g id="line2d_5">
      <path d="M 1447.546236 561.6 
L 1447.546236 7.2 
" clip-path="url(#pac26969c63)" style="fill: none; stroke: #ffffff; stroke-linecap: round"/>
     </g>
     <g id="text_5">
      <!-- 800 -->
      <g style="fill: #262626" transform="translate(1410.009908 603.310156) scale(0.45 -0.45)">
       <defs>
        <path id="ArialMT-38" d="M 1131 2484 
Q 781 2613 612 2850 
Q 444 3088 444 3419 
Q 444 3919 803 4259 
Q 1163 4600 1759 4600 
Q 2359 4600 2725 4251 
Q 3091 3903 3091 3403 
Q 3091 3084 2923 2848 
Q 2756 2613 2416 2484 
Q 2838 2347 3058 2040 
Q 3278 1734 3278 1309 
Q 3278 722 2862 322 
Q 2447 -78 1769 -78 
Q 1091 -78 675 323 
Q 259 725 259 1325 
Q 259 1772 486 2073 
Q 713 2375 1131 2484 
z
M 1019 3438 
Q 1019 3113 1228 2906 
Q 1438 2700 1772 2700 
Q 2097 2700 2305 2904 
Q 2513 3109 2513 3406 
Q 2513 3716 2298 3927 
Q 2084 4138 1766 4138 
Q 1444 4138 1231 3931 
Q 1019 3725 1019 3438 
z
M 838 1322 
Q 838 1081 952 856 
Q 1066 631 1291 507 
Q 1516 384 1775 384 
Q 2178 384 2440 643 
Q 2703 903 2703 1303 
Q 2703 1709 2433 1975 
Q 2163 2241 1756 2241 
Q 1359 2241 1098 1978 
Q 838 1716 838 1322 
z
" transform="scale(0.015625)"/>
       </defs>
       <use xlink:href="#ArialMT-38"/>
       <use xlink:href="#ArialMT-30" x="55.615234"/>
       <use xlink:href="#ArialMT-30" x="111.230469"/>
      </g>
     </g>
    </g>
    <g id="xtick_6">
     <g id="line2d_6">
      <path d="M 1751.909872 561.6 
L 1751.909872 7.2 
" clip-path="url(#pac26969c63)" style="fill: none; stroke: #ffffff; stroke-linecap: round"/>
     </g>
     <g id="text_6">
      <!-- 1000 -->
      <g style="fill: #262626" transform="translate(1701.861435 603.310156) scale(0.45 -0.45)">
       <defs>
        <path id="ArialMT-31" d="M 2384 0 
L 1822 0 
L 1822 3584 
Q 1619 3391 1289 3197 
Q 959 3003 697 2906 
L 697 3450 
Q 1169 3672 1522 3987 
Q 1875 4303 2022 4600 
L 2384 4600 
L 2384 0 
z
" transform="scale(0.015625)"/>
       </defs>
       <use xlink:href="#ArialMT-31"/>
       <use xlink:href="#ArialMT-30" x="55.615234"/>
       <use xlink:href="#ArialMT-30" x="111.230469"/>
       <use xlink:href="#ArialMT-30" x="166.845703"/>
      </g>
     </g>
    </g>
    <g id="text_7">
     <!-- Number of trials -->
     <g style="fill: #262626" transform="translate(814.571094 652.042969) scale(0.5 -0.5)">
      <defs>
       <path id="ArialMT-4e" d="M 488 0 
L 488 4581 
L 1109 4581 
L 3516 984 
L 3516 4581 
L 4097 4581 
L 4097 0 
L 3475 0 
L 1069 3600 
L 1069 0 
L 488 0 
z
" transform="scale(0.015625)"/>
       <path id="ArialMT-75" d="M 2597 0 
L 2597 488 
Q 2209 -75 1544 -75 
Q 1250 -75 995 37 
Q 741 150 617 320 
Q 494 491 444 738 
Q 409 903 409 1263 
L 409 3319 
L 972 3319 
L 972 1478 
Q 972 1038 1006 884 
Q 1059 663 1231 536 
Q 1403 409 1656 409 
Q 1909 409 2131 539 
Q 2353 669 2445 892 
Q 2538 1116 2538 1541 
L 2538 3319 
L 3100 3319 
L 3100 0 
L 2597 0 
z
" transform="scale(0.015625)"/>
       <path id="ArialMT-6d" d="M 422 0 
L 422 3319 
L 925 3319 
L 925 2853 
Q 1081 3097 1340 3245 
Q 1600 3394 1931 3394 
Q 2300 3394 2536 3241 
Q 2772 3088 2869 2813 
Q 3263 3394 3894 3394 
Q 4388 3394 4653 3120 
Q 4919 2847 4919 2278 
L 4919 0 
L 4359 0 
L 4359 2091 
Q 4359 2428 4304 2576 
Q 4250 2725 4106 2815 
Q 3963 2906 3769 2906 
Q 3419 2906 3187 2673 
Q 2956 2441 2956 1928 
L 2956 0 
L 2394 0 
L 2394 2156 
Q 2394 2531 2256 2718 
Q 2119 2906 1806 2906 
Q 1569 2906 1367 2781 
Q 1166 2656 1075 2415 
Q 984 2175 984 1722 
L 984 0 
L 422 0 
z
" transform="scale(0.015625)"/>
       <path id="ArialMT-62" d="M 941 0 
L 419 0 
L 419 4581 
L 981 4581 
L 981 2947 
Q 1338 3394 1891 3394 
Q 2197 3394 2470 3270 
Q 2744 3147 2920 2923 
Q 3097 2700 3197 2384 
Q 3297 2069 3297 1709 
Q 3297 856 2875 390 
Q 2453 -75 1863 -75 
Q 1275 -75 941 416 
L 941 0 
z
M 934 1684 
Q 934 1088 1097 822 
Q 1363 388 1816 388 
Q 2184 388 2453 708 
Q 2722 1028 2722 1663 
Q 2722 2313 2464 2622 
Q 2206 2931 1841 2931 
Q 1472 2931 1203 2611 
Q 934 2291 934 1684 
z
" transform="scale(0.015625)"/>
       <path id="ArialMT-65" d="M 2694 1069 
L 3275 997 
Q 3138 488 2766 206 
Q 2394 -75 1816 -75 
Q 1088 -75 661 373 
Q 234 822 234 1631 
Q 234 2469 665 2931 
Q 1097 3394 1784 3394 
Q 2450 3394 2872 2941 
Q 3294 2488 3294 1666 
Q 3294 1616 3291 1516 
L 816 1516 
Q 847 969 1125 678 
Q 1403 388 1819 388 
Q 2128 388 2347 550 
Q 2566 713 2694 1069 
z
M 847 1978 
L 2700 1978 
Q 2663 2397 2488 2606 
Q 2219 2931 1791 2931 
Q 1403 2931 1139 2672 
Q 875 2413 847 1978 
z
" transform="scale(0.015625)"/>
       <path id="ArialMT-72" d="M 416 0 
L 416 3319 
L 922 3319 
L 922 2816 
Q 1116 3169 1280 3281 
Q 1444 3394 1641 3394 
Q 1925 3394 2219 3213 
L 2025 2691 
Q 1819 2813 1613 2813 
Q 1428 2813 1281 2702 
Q 1134 2591 1072 2394 
Q 978 2094 978 1738 
L 978 0 
L 416 0 
z
" transform="scale(0.015625)"/>
       <path id="ArialMT-20" transform="scale(0.015625)"/>
       <path id="ArialMT-6f" d="M 213 1659 
Q 213 2581 725 3025 
Q 1153 3394 1769 3394 
Q 2453 3394 2887 2945 
Q 3322 2497 3322 1706 
Q 3322 1066 3130 698 
Q 2938 331 2570 128 
Q 2203 -75 1769 -75 
Q 1072 -75 642 372 
Q 213 819 213 1659 
z
M 791 1659 
Q 791 1022 1069 705 
Q 1347 388 1769 388 
Q 2188 388 2466 706 
Q 2744 1025 2744 1678 
Q 2744 2294 2464 2611 
Q 2184 2928 1769 2928 
Q 1347 2928 1069 2612 
Q 791 2297 791 1659 
z
" transform="scale(0.015625)"/>
       <path id="ArialMT-66" d="M 556 0 
L 556 2881 
L 59 2881 
L 59 3319 
L 556 3319 
L 556 3672 
Q 556 4006 616 4169 
Q 697 4388 901 4523 
Q 1106 4659 1475 4659 
Q 1713 4659 2000 4603 
L 1916 4113 
Q 1741 4144 1584 4144 
Q 1328 4144 1222 4034 
Q 1116 3925 1116 3625 
L 1116 3319 
L 1763 3319 
L 1763 2881 
L 1116 2881 
L 1116 0 
L 556 0 
z
" transform="scale(0.015625)"/>
       <path id="ArialMT-74" d="M 1650 503 
L 1731 6 
Q 1494 -44 1306 -44 
Q 1000 -44 831 53 
Q 663 150 594 308 
Q 525 466 525 972 
L 525 2881 
L 113 2881 
L 113 3319 
L 525 3319 
L 525 4141 
L 1084 4478 
L 1084 3319 
L 1650 3319 
L 1650 2881 
L 1084 2881 
L 1084 941 
Q 1084 700 1114 631 
Q 1144 563 1211 522 
Q 1278 481 1403 481 
Q 1497 481 1650 503 
z
" transform="scale(0.015625)"/>
       <path id="ArialMT-69" d="M 425 3934 
L 425 4581 
L 988 4581 
L 988 3934 
L 425 3934 
z
M 425 0 
L 425 3319 
L 988 3319 
L 988 0 
L 425 0 
z
" transform="scale(0.015625)"/>
       <path id="ArialMT-61" d="M 2588 409 
Q 2275 144 1986 34 
Q 1697 -75 1366 -75 
Q 819 -75 525 192 
Q 231 459 231 875 
Q 231 1119 342 1320 
Q 453 1522 633 1644 
Q 813 1766 1038 1828 
Q 1203 1872 1538 1913 
Q 2219 1994 2541 2106 
Q 2544 2222 2544 2253 
Q 2544 2597 2384 2738 
Q 2169 2928 1744 2928 
Q 1347 2928 1158 2789 
Q 969 2650 878 2297 
L 328 2372 
Q 403 2725 575 2942 
Q 747 3159 1072 3276 
Q 1397 3394 1825 3394 
Q 2250 3394 2515 3294 
Q 2781 3194 2906 3042 
Q 3031 2891 3081 2659 
Q 3109 2516 3109 2141 
L 3109 1391 
Q 3109 606 3145 398 
Q 3181 191 3288 0 
L 2700 0 
Q 2613 175 2588 409 
z
M 2541 1666 
Q 2234 1541 1622 1453 
Q 1275 1403 1131 1340 
Q 988 1278 909 1158 
Q 831 1038 831 891 
Q 831 666 1001 516 
Q 1172 366 1500 366 
Q 1825 366 2078 508 
Q 2331 650 2450 897 
Q 2541 1088 2541 1459 
L 2541 1666 
z
" transform="scale(0.015625)"/>
       <path id="ArialMT-6c" d="M 409 0 
L 409 4581 
L 972 4581 
L 972 0 
L 409 0 
z
" transform="scale(0.015625)"/>
       <path id="ArialMT-73" d="M 197 991 
L 753 1078 
Q 800 744 1014 566 
Q 1228 388 1613 388 
Q 2000 388 2187 545 
Q 2375 703 2375 916 
Q 2375 1106 2209 1216 
Q 2094 1291 1634 1406 
Q 1016 1563 777 1677 
Q 538 1791 414 1992 
Q 291 2194 291 2438 
Q 291 2659 392 2848 
Q 494 3038 669 3163 
Q 800 3259 1026 3326 
Q 1253 3394 1513 3394 
Q 1903 3394 2198 3281 
Q 2494 3169 2634 2976 
Q 2775 2784 2828 2463 
L 2278 2388 
Q 2241 2644 2061 2787 
Q 1881 2931 1553 2931 
Q 1166 2931 1000 2803 
Q 834 2675 834 2503 
Q 834 2394 903 2306 
Q 972 2216 1119 2156 
Q 1203 2125 1616 2013 
Q 2213 1853 2448 1751 
Q 2684 1650 2818 1456 
Q 2953 1263 2953 975 
Q 2953 694 2789 445 
Q 2625 197 2315 61 
Q 2006 -75 1616 -75 
Q 969 -75 630 194 
Q 291 463 197 991 
z
" transform="scale(0.015625)"/>
      </defs>
      <use xlink:href="#ArialMT-4e"/>
      <use xlink:href="#ArialMT-75" x="72.216797"/>
      <use xlink:href="#ArialMT-6d" x="127.832031"/>
      <use xlink:href="#ArialMT-62" x="211.132812"/>
      <use xlink:href="#ArialMT-65" x="266.748047"/>
      <use xlink:href="#ArialMT-72" x="322.363281"/>
      <use xlink:href="#ArialMT-20" x="355.664062"/>
      <use xlink:href="#ArialMT-6f" x="383.447266"/>
      <use xlink:href="#ArialMT-66" x="439.0625"/>
      <use xlink:href="#ArialMT-20" x="466.845703"/>
      <use xlink:href="#ArialMT-74" x="494.628906"/>
      <use xlink:href="#ArialMT-72" x="522.412109"/>
      <use xlink:href="#ArialMT-69" x="555.712891"/>
      <use xlink:href="#ArialMT-61" x="577.929688"/>
      <use xlink:href="#ArialMT-6c" x="633.544922"/>
      <use xlink:href="#ArialMT-73" x="655.761719"/>
     </g>
    </g>
   </g>
   <g id="matplotlib.axis_2">
    <g id="ytick_1">
     <g id="line2d_7">
      <path d="M 154.000781 548.338951 
L 1828.000781 548.338951 
" clip-path="url(#pac26969c63)" style="fill: none; stroke: #ffffff; stroke-linecap: round"/>
     </g>
     <g id="text_8">
      <!-- 0.20 -->
      <g style="fill: #262626" transform="translate(56.926563 564.444029) scale(0.45 -0.45)">
       <defs>
        <path id="ArialMT-2e" d="M 581 0 
L 581 641 
L 1222 641 
L 1222 0 
L 581 0 
z
" transform="scale(0.015625)"/>
       </defs>
       <use xlink:href="#ArialMT-30"/>
       <use xlink:href="#ArialMT-2e" x="55.615234"/>
       <use xlink:href="#ArialMT-32" x="83.398438"/>
       <use xlink:href="#ArialMT-30" x="139.013672"/>
      </g>
     </g>
    </g>
    <g id="ytick_2">
     <g id="line2d_8">
      <path d="M 154.000781 429.122607 
L 1828.000781 429.122607 
" clip-path="url(#pac26969c63)" style="fill: none; stroke: #ffffff; stroke-linecap: round"/>
     </g>
     <g id="text_9">
      <!-- 0.25 -->
      <g style="fill: #262626" transform="translate(56.926563 445.227685) scale(0.45 -0.45)">
       <defs>
        <path id="ArialMT-35" d="M 266 1200 
L 856 1250 
Q 922 819 1161 601 
Q 1400 384 1738 384 
Q 2144 384 2425 690 
Q 2706 997 2706 1503 
Q 2706 1984 2436 2262 
Q 2166 2541 1728 2541 
Q 1456 2541 1237 2417 
Q 1019 2294 894 2097 
L 366 2166 
L 809 4519 
L 3088 4519 
L 3088 3981 
L 1259 3981 
L 1013 2750 
Q 1425 3038 1878 3038 
Q 2478 3038 2890 2622 
Q 3303 2206 3303 1553 
Q 3303 931 2941 478 
Q 2500 -78 1738 -78 
Q 1113 -78 717 272 
Q 322 622 266 1200 
z
" transform="scale(0.015625)"/>
       </defs>
       <use xlink:href="#ArialMT-30"/>
       <use xlink:href="#ArialMT-2e" x="55.615234"/>
       <use xlink:href="#ArialMT-32" x="83.398438"/>
       <use xlink:href="#ArialMT-35" x="139.013672"/>
      </g>
     </g>
    </g>
    <g id="ytick_3">
     <g id="line2d_9">
      <path d="M 154.000781 309.906263 
L 1828.000781 309.906263 
" clip-path="url(#pac26969c63)" style="fill: none; stroke: #ffffff; stroke-linecap: round"/>
     </g>
     <g id="text_10">
      <!-- 0.30 -->
      <g style="fill: #262626" transform="translate(56.926563 326.011341) scale(0.45 -0.45)">
       <defs>
        <path id="ArialMT-33" d="M 269 1209 
L 831 1284 
Q 928 806 1161 595 
Q 1394 384 1728 384 
Q 2125 384 2398 659 
Q 2672 934 2672 1341 
Q 2672 1728 2419 1979 
Q 2166 2231 1775 2231 
Q 1616 2231 1378 2169 
L 1441 2663 
Q 1497 2656 1531 2656 
Q 1891 2656 2178 2843 
Q 2466 3031 2466 3422 
Q 2466 3731 2256 3934 
Q 2047 4138 1716 4138 
Q 1388 4138 1169 3931 
Q 950 3725 888 3313 
L 325 3413 
Q 428 3978 793 4289 
Q 1159 4600 1703 4600 
Q 2078 4600 2393 4439 
Q 2709 4278 2876 4000 
Q 3044 3722 3044 3409 
Q 3044 3113 2884 2869 
Q 2725 2625 2413 2481 
Q 2819 2388 3044 2092 
Q 3269 1797 3269 1353 
Q 3269 753 2831 336 
Q 2394 -81 1725 -81 
Q 1122 -81 723 278 
Q 325 638 269 1209 
z
" transform="scale(0.015625)"/>
       </defs>
       <use xlink:href="#ArialMT-30"/>
       <use xlink:href="#ArialMT-2e" x="55.615234"/>
       <use xlink:href="#ArialMT-33" x="83.398438"/>
       <use xlink:href="#ArialMT-30" x="139.013672"/>
      </g>
     </g>
    </g>
    <g id="ytick_4">
     <g id="line2d_10">
      <path d="M 154.000781 190.689919 
L 1828.000781 190.689919 
" clip-path="url(#pac26969c63)" style="fill: none; stroke: #ffffff; stroke-linecap: round"/>
     </g>
     <g id="text_11">
      <!-- 0.35 -->
      <g style="fill: #262626" transform="translate(56.926563 206.794997) scale(0.45 -0.45)">
       <use xlink:href="#ArialMT-30"/>
       <use xlink:href="#ArialMT-2e" x="55.615234"/>
       <use xlink:href="#ArialMT-33" x="83.398438"/>
       <use xlink:href="#ArialMT-35" x="139.013672"/>
      </g>
     </g>
    </g>
    <g id="ytick_5">
     <g id="line2d_11">
      <path d="M 154.000781 71.473575 
L 1828.000781 71.473575 
" clip-path="url(#pac26969c63)" style="fill: none; stroke: #ffffff; stroke-linecap: round"/>
     </g>
     <g id="text_12">
      <!-- 0.40 -->
      <g style="fill: #262626" transform="translate(56.926563 87.578653) scale(0.45 -0.45)">
       <use xlink:href="#ArialMT-30"/>
       <use xlink:href="#ArialMT-2e" x="55.615234"/>
       <use xlink:href="#ArialMT-34" x="83.398438"/>
       <use xlink:href="#ArialMT-30" x="139.013672"/>
      </g>
     </g>
    </g>
    <g id="text_13">
     <!-- Position error -->
     <g style="fill: #262626" transform="translate(42.989063 433.060156) rotate(-90) scale(0.5 -0.5)">
      <defs>
       <path id="ArialMT-50" d="M 494 0 
L 494 4581 
L 2222 4581 
Q 2678 4581 2919 4538 
Q 3256 4481 3484 4323 
Q 3713 4166 3852 3881 
Q 3991 3597 3991 3256 
Q 3991 2672 3619 2267 
Q 3247 1863 2275 1863 
L 1100 1863 
L 1100 0 
L 494 0 
z
M 1100 2403 
L 2284 2403 
Q 2872 2403 3119 2622 
Q 3366 2841 3366 3238 
Q 3366 3525 3220 3729 
Q 3075 3934 2838 4000 
Q 2684 4041 2272 4041 
L 1100 4041 
L 1100 2403 
z
" transform="scale(0.015625)"/>
       <path id="ArialMT-6e" d="M 422 0 
L 422 3319 
L 928 3319 
L 928 2847 
Q 1294 3394 1984 3394 
Q 2284 3394 2536 3286 
Q 2788 3178 2913 3003 
Q 3038 2828 3088 2588 
Q 3119 2431 3119 2041 
L 3119 0 
L 2556 0 
L 2556 2019 
Q 2556 2363 2490 2533 
Q 2425 2703 2258 2804 
Q 2091 2906 1866 2906 
Q 1506 2906 1245 2678 
Q 984 2450 984 1813 
L 984 0 
L 422 0 
z
" transform="scale(0.015625)"/>
      </defs>
      <use xlink:href="#ArialMT-50"/>
      <use xlink:href="#ArialMT-6f" x="66.699219"/>
      <use xlink:href="#ArialMT-73" x="122.314453"/>
      <use xlink:href="#ArialMT-69" x="172.314453"/>
      <use xlink:href="#ArialMT-74" x="194.53125"/>
      <use xlink:href="#ArialMT-69" x="222.314453"/>
      <use xlink:href="#ArialMT-6f" x="244.53125"/>
      <use xlink:href="#ArialMT-6e" x="300.146484"/>
      <use xlink:href="#ArialMT-20" x="355.761719"/>
      <use xlink:href="#ArialMT-65" x="383.544922"/>
      <use xlink:href="#ArialMT-72" x="439.160156"/>
      <use xlink:href="#ArialMT-72" x="472.460938"/>
      <use xlink:href="#ArialMT-6f" x="505.761719"/>
      <use xlink:href="#ArialMT-72" x="561.376953"/>
     </g>
    </g>
   </g>
   <g id="PolyCollection_1">
    <defs>
     <path id="m428d23a5ed" d="M 230.09169 -636.780469 
L 230.09169 -349.866435 
L 247.000781 -324.186872 
L 263.909872 -293.111543 
L 280.818963 -286.806277 
L 297.728054 -293.312665 
L 314.637145 -283.669911 
L 331.546236 -279.240028 
L 348.455327 -283.504181 
L 365.364418 -293.843334 
L 382.273509 -291.832072 
L 399.182599 -278.547691 
L 416.09169 -268.793808 
L 433.000781 -268.963974 
L 449.909872 -274.910931 
L 466.818963 -262.399576 
L 483.728054 -253.031848 
L 500.637145 -247.803326 
L 517.546236 -235.823364 
L 534.455327 -222.635709 
L 551.364418 -211.313908 
L 568.273509 -202.287404 
L 585.182599 -196.373044 
L 602.09169 -198.187229 
L 619.000781 -192.207236 
L 635.909872 -189.612397 
L 652.818963 -189.697525 
L 669.728054 -177.561461 
L 686.637145 -174.387728 
L 703.546236 -173.512813 
L 720.455327 -176.137932 
L 737.364418 -177.616911 
L 754.273509 -174.382207 
L 771.182599 -166.206647 
L 788.09169 -156.270109 
L 805.000781 -155.810388 
L 821.909872 -143.8902 
L 838.818963 -136.68048 
L 855.728054 -132.780469 
L 872.637145 -133.358606 
L 889.546236 -141.196483 
L 906.455327 -148.892094 
L 923.364418 -145.798072 
L 940.273509 -145.426625 
L 957.182599 -150.658745 
L 974.09169 -156.60669 
L 991.000781 -163.949197 
L 1007.909872 -171.324493 
L 1024.818963 -176.726751 
L 1041.728054 -181.254193 
L 1058.637145 -172.620413 
L 1075.546236 -164.420484 
L 1092.455327 -167.525037 
L 1109.364418 -168.265263 
L 1126.273509 -165.599437 
L 1143.182599 -166.049303 
L 1160.09169 -163.179088 
L 1177.000781 -173.868739 
L 1193.909872 -175.371996 
L 1210.818963 -167.390428 
L 1227.728054 -173.173819 
L 1244.637145 -170.433778 
L 1261.546236 -177.25839 
L 1278.455327 -181.226175 
L 1295.364418 -183.919765 
L 1312.273509 -183.38662 
L 1329.182599 -186.147859 
L 1346.09169 -179.547617 
L 1363.000781 -177.879934 
L 1379.909872 -181.597638 
L 1396.818963 -174.941863 
L 1413.728054 -173.881107 
L 1430.637145 -166.881462 
L 1447.546236 -164.359426 
L 1464.455327 -163.041259 
L 1481.364418 -157.803235 
L 1498.273509 -151.89778 
L 1515.182599 -145.947598 
L 1532.09169 -146.531063 
L 1549.000781 -142.194247 
L 1565.909872 -140.82518 
L 1582.818963 -143.689769 
L 1599.728054 -148.681377 
L 1616.637145 -149.363428 
L 1633.546236 -150.885368 
L 1650.455327 -152.287284 
L 1667.364418 -154.738114 
L 1684.273509 -161.612228 
L 1701.182599 -158.242643 
L 1718.09169 -164.35181 
L 1735.000781 -168.747882 
L 1751.909872 -172.267774 
L 1751.909872 -242.440976 
L 1751.909872 -242.440976 
L 1735.000781 -247.804501 
L 1718.09169 -248.462909 
L 1701.182599 -246.279967 
L 1684.273509 -244.232489 
L 1667.364418 -246.892731 
L 1650.455327 -251.45356 
L 1633.546236 -247.568533 
L 1616.637145 -248.596556 
L 1599.728054 -250.416072 
L 1582.818963 -246.478231 
L 1565.909872 -256.166431 
L 1549.000781 -254.936491 
L 1532.09169 -257.282119 
L 1515.182599 -258.086414 
L 1498.273509 -257.897401 
L 1481.364418 -249.40204 
L 1464.455327 -252.033222 
L 1447.546236 -253.356256 
L 1430.637145 -250.872427 
L 1413.728054 -263.456326 
L 1396.818963 -247.540153 
L 1379.909872 -250.213253 
L 1363.000781 -246.477915 
L 1346.09169 -255.689923 
L 1329.182599 -267.013505 
L 1312.273509 -269.936324 
L 1295.364418 -274.956771 
L 1278.455327 -269.79099 
L 1261.546236 -271.913141 
L 1244.637145 -269.011235 
L 1227.728054 -274.57855 
L 1210.818963 -278.507777 
L 1193.909872 -282.677839 
L 1177.000781 -279.910179 
L 1160.09169 -278.575558 
L 1143.182599 -279.843821 
L 1126.273509 -275.655585 
L 1109.364418 -275.452741 
L 1092.455327 -276.559261 
L 1075.546236 -294.306255 
L 1058.637145 -301.674527 
L 1041.728054 -304.733536 
L 1024.818963 -304.756569 
L 1007.909872 -305.211357 
L 991.000781 -295.270514 
L 974.09169 -288.898745 
L 957.182599 -294.922402 
L 940.273509 -302.71053 
L 923.364418 -308.409031 
L 906.455327 -290.771415 
L 889.546236 -289.01045 
L 872.637145 -284.591798 
L 855.728054 -287.737098 
L 838.818963 -293.964154 
L 821.909872 -297.828437 
L 805.000781 -306.334687 
L 788.09169 -302.959879 
L 771.182599 -306.987468 
L 754.273509 -333.57965 
L 737.364418 -357.111715 
L 720.455327 -356.478783 
L 703.546236 -358.579463 
L 686.637145 -366.271379 
L 669.728054 -361.471825 
L 652.818963 -362.714136 
L 635.909872 -391.548084 
L 619.000781 -389.138473 
L 602.09169 -419.811818 
L 585.182599 -384.899203 
L 568.273509 -379.508486 
L 551.364418 -407.335149 
L 534.455327 -421.457514 
L 517.546236 -442.628654 
L 500.637145 -451.594368 
L 483.728054 -464.294233 
L 466.818963 -464.565307 
L 449.909872 -490.346057 
L 433.000781 -464.791103 
L 416.09169 -476.235443 
L 399.182599 -472.355773 
L 382.273509 -453.208171 
L 365.364418 -459.972333 
L 348.455327 -453.221791 
L 331.546236 -460.308003 
L 314.637145 -471.155013 
L 297.728054 -492.905724 
L 280.818963 -513.930305 
L 263.909872 -549.943892 
L 247.000781 -594.168343 
L 230.09169 -636.780469 
z
" style="stroke: #ffffff; stroke-opacity: 0.2"/>
    </defs>
    <g clip-path="url(#pac26969c63)">
     <use xlink:href="#m428d23a5ed" x="0" y="669.180469" style="fill: #46327e; fill-opacity: 0.2; stroke: #ffffff; stroke-opacity: 0.2"/>
    </g>
   </g>
   <g id="line2d_12">
    <path d="M 230.09169 175.857017 
L 247.000781 210.002861 
L 263.909872 247.652751 
L 280.818963 268.812177 
L 297.728054 276.071274 
L 314.637145 291.768007 
L 331.546236 299.406453 
L 348.455327 300.817483 
L 365.364418 292.272635 
L 382.273509 296.660347 
L 399.182599 293.728737 
L 416.09169 296.665843 
L 433.000781 302.30293 
L 449.909872 286.551975 
L 466.818963 305.698028 
L 483.728054 310.517428 
L 500.637145 319.481622 
L 517.546236 329.95446 
L 534.455327 347.133857 
L 551.364418 359.85594 
L 568.273509 378.282524 
L 585.182599 378.544345 
L 602.09169 360.180945 
L 619.000781 378.507614 
L 635.909872 378.600229 
L 652.818963 392.974638 
L 669.728054 399.663826 
L 686.637145 398.850916 
L 703.546236 403.134331 
L 720.455327 402.872111 
L 737.364418 401.816155 
L 754.273509 415.19954 
L 771.182599 432.583411 
L 788.09169 439.565475 
L 805.000781 438.107931 
L 821.909872 448.32115 
L 838.818963 453.858152 
L 855.728054 458.921686 
L 872.637145 460.205267 
L 889.546236 454.077002 
L 906.455327 449.348714 
L 923.364418 442.076918 
L 940.273509 445.111891 
L 957.182599 446.389895 
L 974.09169 446.427751 
L 991.000781 439.570614 
L 1007.909872 430.912544 
L 1024.818963 428.438809 
L 1041.728054 426.186604 
L 1058.637145 432.032999 
L 1075.546236 439.817099 
L 1092.455327 447.138319 
L 1109.364418 447.321467 
L 1126.273509 448.552958 
L 1143.182599 446.233907 
L 1160.09169 448.303146 
L 1177.000781 442.29101 
L 1193.909872 440.155551 
L 1210.818963 446.231366 
L 1227.728054 445.304284 
L 1244.637145 449.457962 
L 1261.546236 444.594703 
L 1278.455327 443.671886 
L 1295.364418 439.7422 
L 1312.273509 442.518997 
L 1329.182599 442.599787 
L 1346.09169 451.561699 
L 1363.000781 457.001544 
L 1379.909872 453.275023 
L 1396.818963 457.939461 
L 1413.728054 450.511752 
L 1430.637145 460.303525 
L 1447.546236 460.322628 
L 1464.455327 461.643229 
L 1481.364418 465.577831 
L 1498.273509 464.282878 
L 1515.182599 467.163463 
L 1532.09169 467.273878 
L 1549.000781 470.615099 
L 1565.909872 470.684664 
L 1582.818963 474.096469 
L 1599.728054 469.631744 
L 1616.637145 470.200477 
L 1633.546236 469.953518 
L 1650.455327 467.310047 
L 1667.364418 468.365046 
L 1684.273509 466.25811 
L 1701.182599 466.919164 
L 1718.09169 462.773109 
L 1735.000781 460.904277 
L 1751.909872 461.826094 
" clip-path="url(#pac26969c63)" style="fill: none; stroke: #46327e; stroke-width: 1.5; stroke-linecap: round"/>
   </g>
   <g id="patch_3">
    <path d="M 154.000781 561.6 
L 154.000781 7.2 
" style="fill: none; stroke: #ffffff; stroke-width: 1.25; stroke-linejoin: miter; stroke-linecap: square"/>
   </g>
   <g id="patch_4">
    <path d="M 1828.000781 561.6 
L 1828.000781 7.2 
" style="fill: none; stroke: #ffffff; stroke-width: 1.25; stroke-linejoin: miter; stroke-linecap: square"/>
   </g>
   <g id="patch_5">
    <path d="M 154.000781 561.6 
L 1828.000781 561.6 
" style="fill: none; stroke: #ffffff; stroke-width: 1.25; stroke-linejoin: miter; stroke-linecap: square"/>
   </g>
   <g id="patch_6">
    <path d="M 154.000781 7.2 
L 1828.000781 7.2 
" style="fill: none; stroke: #ffffff; stroke-width: 1.25; stroke-linejoin: miter; stroke-linecap: square"/>
   </g>
  </g>
 </g>
 <defs>
  <clipPath id="pac26969c63">
   <rect x="154.000781" y="7.2" width="1674" height="554.4"/>
  </clipPath>
 </defs>
</svg>
