<?xml version="1.0" encoding="utf-8" standalone="no"?>
<!DOCTYPE svg PUBLIC "-//W3C//DTD SVG 1.1//EN"
  "http://www.w3.org/Graphics/SVG/1.1/DTD/svg11.dtd">
<svg xmlns:xlink="http://www.w3.org/1999/xlink" width="1823.308594pt" height="676.750197pt" viewBox="0 0 1823.308594 676.750197" xmlns="http://www.w3.org/2000/svg" version="1.1">
 <metadata>
  <rdf:RDF xmlns:dc="http://purl.org/dc/elements/1.1/" xmlns:cc="http://creativecommons.org/ns#" xmlns:rdf="http://www.w3.org/1999/02/22-rdf-syntax-ns#">
   <cc:Work>
    <dc:type rdf:resource="http://purl.org/dc/dcmitype/StillImage"/>
    <dc:date>2024-05-27T11:15:34.045996</dc:date>
    <dc:format>image/svg+xml</dc:format>
    <dc:creator>
     <cc:Agent>
      <dc:title>Matplotlib v3.6.3, https://matplotlib.org/</dc:title>
     </cc:Agent>
    </dc:creator>
   </cc:Work>
  </rdf:RDF>
 </metadata>
 <defs>
  <style type="text/css">*{stroke-linejoin: round; stroke-linecap: butt}</style>
 </defs>
 <g id="figure_1">
  <g id="patch_1">
   <path d="M 0 676.750197 
L 1823.308594 676.750197 
L 1823.308594 0 
L 0 0 
z
" style="fill: #ffffff"/>
  </g>
  <g id="axes_1">
   <g id="patch_2">
    <path d="M 142.108594 569.169728 
L 1816.108594 569.169728 
L 1816.108594 14.769728 
L 142.108594 14.769728 
z
" style="fill: #eaeaf2"/>
   </g>
   <g id="matplotlib.axis_1">
    <g id="xtick_1">
     <g id="line2d_1">
      <path d="M 218.199503 569.169728 
L 218.199503 14.769728 
" clip-path="url(#p6735dc147d)" style="fill: none; stroke: #ffffff; stroke-linecap: round"/>
     </g>
     <g id="text_1">
      <!-- 0 -->
      <g style="fill: #262626" transform="translate(205.687393 610.879884) scale(0.45 -0.45)">
       <defs>
        <path id="ArialMT-30" d="M 266 2259 
Q 266 3072 433 3567 
Q 600 4063 929 4331 
Q 1259 4600 1759 4600 
Q 2128 4600 2406 4451 
Q 2684 4303 2865 4023 
Q 3047 3744 3150 3342 
Q 3253 2941 3253 2259 
Q 3253 1453 3087 958 
Q 2922 463 2592 192 
Q 2263 -78 1759 -78 
Q 1097 -78 719 397 
Q 266 969 266 2259 
z
M 844 2259 
Q 844 1131 1108 757 
Q 1372 384 1759 384 
Q 2147 384 2411 759 
Q 2675 1134 2675 2259 
Q 2675 3391 2411 3762 
Q 2147 4134 1753 4134 
Q 1366 4134 1134 3806 
Q 844 3388 844 2259 
z
" transform="scale(0.015625)"/>
       </defs>
       <use xlink:href="#ArialMT-30"/>
      </g>
     </g>
    </g>
    <g id="xtick_2">
     <g id="line2d_2">
      <path d="M 522.563139 569.169728 
L 522.563139 14.769728 
" clip-path="url(#p6735dc147d)" style="fill: none; stroke: #ffffff; stroke-linecap: round"/>
     </g>
     <g id="text_2">
      <!-- 200 -->
      <g style="fill: #262626" transform="translate(485.026811 610.879884) scale(0.45 -0.45)">
       <defs>
        <path id="ArialMT-32" d="M 3222 541 
L 3222 0 
L 194 0 
Q 188 203 259 391 
Q 375 700 629 1000 
Q 884 1300 1366 1694 
Q 2113 2306 2375 2664 
Q 2638 3022 2638 3341 
Q 2638 3675 2398 3904 
Q 2159 4134 1775 4134 
Q 1369 4134 1125 3890 
Q 881 3647 878 3216 
L 300 3275 
Q 359 3922 746 4261 
Q 1134 4600 1788 4600 
Q 2447 4600 2831 4234 
Q 3216 3869 3216 3328 
Q 3216 3053 3103 2787 
Q 2991 2522 2730 2228 
Q 2469 1934 1863 1422 
Q 1356 997 1212 845 
Q 1069 694 975 541 
L 3222 541 
z
" transform="scale(0.015625)"/>
       </defs>
       <use xlink:href="#ArialMT-32"/>
       <use xlink:href="#ArialMT-30" x="55.615234"/>
       <use xlink:href="#ArialMT-30" x="111.230469"/>
      </g>
     </g>
    </g>
    <g id="xtick_3">
     <g id="line2d_3">
      <path d="M 826.926776 569.169728 
L 826.926776 14.769728 
" clip-path="url(#p6735dc147d)" style="fill: none; stroke: #ffffff; stroke-linecap: round"/>
     </g>
     <g id="text_3">
      <!-- 400 -->
      <g style="fill: #262626" transform="translate(789.390447 610.879884) scale(0.45 -0.45)">
       <defs>
        <path id="ArialMT-34" d="M 2069 0 
L 2069 1097 
L 81 1097 
L 81 1613 
L 2172 4581 
L 2631 4581 
L 2631 1613 
L 3250 1613 
L 3250 1097 
L 2631 1097 
L 2631 0 
L 2069 0 
z
M 2069 1613 
L 2069 3678 
L 634 1613 
L 2069 1613 
z
" transform="scale(0.015625)"/>
       </defs>
       <use xlink:href="#ArialMT-34"/>
       <use xlink:href="#ArialMT-30" x="55.615234"/>
       <use xlink:href="#ArialMT-30" x="111.230469"/>
      </g>
     </g>
    </g>
    <g id="xtick_4">
     <g id="line2d_4">
      <path d="M 1131.290412 569.169728 
L 1131.290412 14.769728 
" clip-path="url(#p6735dc147d)" style="fill: none; stroke: #ffffff; stroke-linecap: round"/>
     </g>
     <g id="text_4">
      <!-- 600 -->
      <g style="fill: #262626" transform="translate(1093.754084 610.879884) scale(0.45 -0.45)">
       <defs>
        <path id="ArialMT-36" d="M 3184 3459 
L 2625 3416 
Q 2550 3747 2413 3897 
Q 2184 4138 1850 4138 
Q 1581 4138 1378 3988 
Q 1113 3794 959 3422 
Q 806 3050 800 2363 
Q 1003 2672 1297 2822 
Q 1591 2972 1913 2972 
Q 2475 2972 2870 2558 
Q 3266 2144 3266 1488 
Q 3266 1056 3080 686 
Q 2894 316 2569 119 
Q 2244 -78 1831 -78 
Q 1128 -78 684 439 
Q 241 956 241 2144 
Q 241 3472 731 4075 
Q 1159 4600 1884 4600 
Q 2425 4600 2770 4297 
Q 3116 3994 3184 3459 
z
M 888 1484 
Q 888 1194 1011 928 
Q 1134 663 1356 523 
Q 1578 384 1822 384 
Q 2178 384 2434 671 
Q 2691 959 2691 1453 
Q 2691 1928 2437 2201 
Q 2184 2475 1800 2475 
Q 1419 2475 1153 2201 
Q 888 1928 888 1484 
z
" transform="scale(0.015625)"/>
       </defs>
       <use xlink:href="#ArialMT-36"/>
       <use xlink:href="#ArialMT-30" x="55.615234"/>
       <use xlink:href="#ArialMT-30" x="111.230469"/>
      </g>
     </g>
    </g>
    <g id="xtick_5">
     <g id="line2d_5">
      <path d="M 1435.654048 569.169728 
L 1435.654048 14.769728 
" clip-path="url(#p6735dc147d)" style="fill: none; stroke: #ffffff; stroke-linecap: round"/>
     </g>
     <g id="text_5">
      <!-- 800 -->
      <g style="fill: #262626" transform="translate(1398.11772 610.879884) scale(0.45 -0.45)">
       <defs>
        <path id="ArialMT-38" d="M 1131 2484 
Q 781 2613 612 2850 
Q 444 3088 444 3419 
Q 444 3919 803 4259 
Q 1163 4600 1759 4600 
Q 2359 4600 2725 4251 
Q 3091 3903 3091 3403 
Q 3091 3084 2923 2848 
Q 2756 2613 2416 2484 
Q 2838 2347 3058 2040 
Q 3278 1734 3278 1309 
Q 3278 722 2862 322 
Q 2447 -78 1769 -78 
Q 1091 -78 675 323 
Q 259 725 259 1325 
Q 259 1772 486 2073 
Q 713 2375 1131 2484 
z
M 1019 3438 
Q 1019 3113 1228 2906 
Q 1438 2700 1772 2700 
Q 2097 2700 2305 2904 
Q 2513 3109 2513 3406 
Q 2513 3716 2298 3927 
Q 2084 4138 1766 4138 
Q 1444 4138 1231 3931 
Q 1019 3725 1019 3438 
z
M 838 1322 
Q 838 1081 952 856 
Q 1066 631 1291 507 
Q 1516 384 1775 384 
Q 2178 384 2440 643 
Q 2703 903 2703 1303 
Q 2703 1709 2433 1975 
Q 2163 2241 1756 2241 
Q 1359 2241 1098 1978 
Q 838 1716 838 1322 
z
" transform="scale(0.015625)"/>
       </defs>
       <use xlink:href="#ArialMT-38"/>
       <use xlink:href="#ArialMT-30" x="55.615234"/>
       <use xlink:href="#ArialMT-30" x="111.230469"/>
      </g>
     </g>
    </g>
    <g id="xtick_6">
     <g id="line2d_6">
      <path d="M 1740.017685 569.169728 
L 1740.017685 14.769728 
" clip-path="url(#p6735dc147d)" style="fill: none; stroke: #ffffff; stroke-linecap: round"/>
     </g>
     <g id="text_6">
      <!-- 1000 -->
      <g style="fill: #262626" transform="translate(1689.969247 610.879884) scale(0.45 -0.45)">
       <defs>
        <path id="ArialMT-31" d="M 2384 0 
L 1822 0 
L 1822 3584 
Q 1619 3391 1289 3197 
Q 959 3003 697 2906 
L 697 3450 
Q 1169 3672 1522 3987 
Q 1875 4303 2022 4600 
L 2384 4600 
L 2384 0 
z
" transform="scale(0.015625)"/>
       </defs>
       <use xlink:href="#ArialMT-31"/>
       <use xlink:href="#ArialMT-30" x="55.615234"/>
       <use xlink:href="#ArialMT-30" x="111.230469"/>
       <use xlink:href="#ArialMT-30" x="166.845703"/>
      </g>
     </g>
    </g>
    <g id="text_7">
     <!-- Number of trials -->
     <g style="fill: #262626" transform="translate(802.678906 659.612697) scale(0.5 -0.5)">
      <defs>
       <path id="ArialMT-4e" d="M 488 0 
L 488 4581 
L 1109 4581 
L 3516 984 
L 3516 4581 
L 4097 4581 
L 4097 0 
L 3475 0 
L 1069 3600 
L 1069 0 
L 488 0 
z
" transform="scale(0.015625)"/>
       <path id="ArialMT-75" d="M 2597 0 
L 2597 488 
Q 2209 -75 1544 -75 
Q 1250 -75 995 37 
Q 741 150 617 320 
Q 494 491 444 738 
Q 409 903 409 1263 
L 409 3319 
L 972 3319 
L 972 1478 
Q 972 1038 1006 884 
Q 1059 663 1231 536 
Q 1403 409 1656 409 
Q 1909 409 2131 539 
Q 2353 669 2445 892 
Q 2538 1116 2538 1541 
L 2538 3319 
L 3100 3319 
L 3100 0 
L 2597 0 
z
" transform="scale(0.015625)"/>
       <path id="ArialMT-6d" d="M 422 0 
L 422 3319 
L 925 3319 
L 925 2853 
Q 1081 3097 1340 3245 
Q 1600 3394 1931 3394 
Q 2300 3394 2536 3241 
Q 2772 3088 2869 2813 
Q 3263 3394 3894 3394 
Q 4388 3394 4653 3120 
Q 4919 2847 4919 2278 
L 4919 0 
L 4359 0 
L 4359 2091 
Q 4359 2428 4304 2576 
Q 4250 2725 4106 2815 
Q 3963 2906 3769 2906 
Q 3419 2906 3187 2673 
Q 2956 2441 2956 1928 
L 2956 0 
L 2394 0 
L 2394 2156 
Q 2394 2531 2256 2718 
Q 2119 2906 1806 2906 
Q 1569 2906 1367 2781 
Q 1166 2656 1075 2415 
Q 984 2175 984 1722 
L 984 0 
L 422 0 
z
" transform="scale(0.015625)"/>
       <path id="ArialMT-62" d="M 941 0 
L 419 0 
L 419 4581 
L 981 4581 
L 981 2947 
Q 1338 3394 1891 3394 
Q 2197 3394 2470 3270 
Q 2744 3147 2920 2923 
Q 3097 2700 3197 2384 
Q 3297 2069 3297 1709 
Q 3297 856 2875 390 
Q 2453 -75 1863 -75 
Q 1275 -75 941 416 
L 941 0 
z
M 934 1684 
Q 934 1088 1097 822 
Q 1363 388 1816 388 
Q 2184 388 2453 708 
Q 2722 1028 2722 1663 
Q 2722 2313 2464 2622 
Q 2206 2931 1841 2931 
Q 1472 2931 1203 2611 
Q 934 2291 934 1684 
z
" transform="scale(0.015625)"/>
       <path id="ArialMT-65" d="M 2694 1069 
L 3275 997 
Q 3138 488 2766 206 
Q 2394 -75 1816 -75 
Q 1088 -75 661 373 
Q 234 822 234 1631 
Q 234 2469 665 2931 
Q 1097 3394 1784 3394 
Q 2450 3394 2872 2941 
Q 3294 2488 3294 1666 
Q 3294 1616 3291 1516 
L 816 1516 
Q 847 969 1125 678 
Q 1403 388 1819 388 
Q 2128 388 2347 550 
Q 2566 713 2694 1069 
z
M 847 1978 
L 2700 1978 
Q 2663 2397 2488 2606 
Q 2219 2931 1791 2931 
Q 1403 2931 1139 2672 
Q 875 2413 847 1978 
z
" transform="scale(0.015625)"/>
       <path id="ArialMT-72" d="M 416 0 
L 416 3319 
L 922 3319 
L 922 2816 
Q 1116 3169 1280 3281 
Q 1444 3394 1641 3394 
Q 1925 3394 2219 3213 
L 2025 2691 
Q 1819 2813 1613 2813 
Q 1428 2813 1281 2702 
Q 1134 2591 1072 2394 
Q 978 2094 978 1738 
L 978 0 
L 416 0 
z
" transform="scale(0.015625)"/>
       <path id="ArialMT-20" transform="scale(0.015625)"/>
       <path id="ArialMT-6f" d="M 213 1659 
Q 213 2581 725 3025 
Q 1153 3394 1769 3394 
Q 2453 3394 2887 2945 
Q 3322 2497 3322 1706 
Q 3322 1066 3130 698 
Q 2938 331 2570 128 
Q 2203 -75 1769 -75 
Q 1072 -75 642 372 
Q 213 819 213 1659 
z
M 791 1659 
Q 791 1022 1069 705 
Q 1347 388 1769 388 
Q 2188 388 2466 706 
Q 2744 1025 2744 1678 
Q 2744 2294 2464 2611 
Q 2184 2928 1769 2928 
Q 1347 2928 1069 2612 
Q 791 2297 791 1659 
z
" transform="scale(0.015625)"/>
       <path id="ArialMT-66" d="M 556 0 
L 556 2881 
L 59 2881 
L 59 3319 
L 556 3319 
L 556 3672 
Q 556 4006 616 4169 
Q 697 4388 901 4523 
Q 1106 4659 1475 4659 
Q 1713 4659 2000 4603 
L 1916 4113 
Q 1741 4144 1584 4144 
Q 1328 4144 1222 4034 
Q 1116 3925 1116 3625 
L 1116 3319 
L 1763 3319 
L 1763 2881 
L 1116 2881 
L 1116 0 
L 556 0 
z
" transform="scale(0.015625)"/>
       <path id="ArialMT-74" d="M 1650 503 
L 1731 6 
Q 1494 -44 1306 -44 
Q 1000 -44 831 53 
Q 663 150 594 308 
Q 525 466 525 972 
L 525 2881 
L 113 2881 
L 113 3319 
L 525 3319 
L 525 4141 
L 1084 4478 
L 1084 3319 
L 1650 3319 
L 1650 2881 
L 1084 2881 
L 1084 941 
Q 1084 700 1114 631 
Q 1144 563 1211 522 
Q 1278 481 1403 481 
Q 1497 481 1650 503 
z
" transform="scale(0.015625)"/>
       <path id="ArialMT-69" d="M 425 3934 
L 425 4581 
L 988 4581 
L 988 3934 
L 425 3934 
z
M 425 0 
L 425 3319 
L 988 3319 
L 988 0 
L 425 0 
z
" transform="scale(0.015625)"/>
       <path id="ArialMT-61" d="M 2588 409 
Q 2275 144 1986 34 
Q 1697 -75 1366 -75 
Q 819 -75 525 192 
Q 231 459 231 875 
Q 231 1119 342 1320 
Q 453 1522 633 1644 
Q 813 1766 1038 1828 
Q 1203 1872 1538 1913 
Q 2219 1994 2541 2106 
Q 2544 2222 2544 2253 
Q 2544 2597 2384 2738 
Q 2169 2928 1744 2928 
Q 1347 2928 1158 2789 
Q 969 2650 878 2297 
L 328 2372 
Q 403 2725 575 2942 
Q 747 3159 1072 3276 
Q 1397 3394 1825 3394 
Q 2250 3394 2515 3294 
Q 2781 3194 2906 3042 
Q 3031 2891 3081 2659 
Q 3109 2516 3109 2141 
L 3109 1391 
Q 3109 606 3145 398 
Q 3181 191 3288 0 
L 2700 0 
Q 2613 175 2588 409 
z
M 2541 1666 
Q 2234 1541 1622 1453 
Q 1275 1403 1131 1340 
Q 988 1278 909 1158 
Q 831 1038 831 891 
Q 831 666 1001 516 
Q 1172 366 1500 366 
Q 1825 366 2078 508 
Q 2331 650 2450 897 
Q 2541 1088 2541 1459 
L 2541 1666 
z
" transform="scale(0.015625)"/>
       <path id="ArialMT-6c" d="M 409 0 
L 409 4581 
L 972 4581 
L 972 0 
L 409 0 
z
" transform="scale(0.015625)"/>
       <path id="ArialMT-73" d="M 197 991 
L 753 1078 
Q 800 744 1014 566 
Q 1228 388 1613 388 
Q 2000 388 2187 545 
Q 2375 703 2375 916 
Q 2375 1106 2209 1216 
Q 2094 1291 1634 1406 
Q 1016 1563 777 1677 
Q 538 1791 414 1992 
Q 291 2194 291 2438 
Q 291 2659 392 2848 
Q 494 3038 669 3163 
Q 800 3259 1026 3326 
Q 1253 3394 1513 3394 
Q 1903 3394 2198 3281 
Q 2494 3169 2634 2976 
Q 2775 2784 2828 2463 
L 2278 2388 
Q 2241 2644 2061 2787 
Q 1881 2931 1553 2931 
Q 1166 2931 1000 2803 
Q 834 2675 834 2503 
Q 834 2394 903 2306 
Q 972 2216 1119 2156 
Q 1203 2125 1616 2013 
Q 2213 1853 2448 1751 
Q 2684 1650 2818 1456 
Q 2953 1263 2953 975 
Q 2953 694 2789 445 
Q 2625 197 2315 61 
Q 2006 -75 1616 -75 
Q 969 -75 630 194 
Q 291 463 197 991 
z
" transform="scale(0.015625)"/>
      </defs>
      <use xlink:href="#ArialMT-4e"/>
      <use xlink:href="#ArialMT-75" x="72.216797"/>
      <use xlink:href="#ArialMT-6d" x="127.832031"/>
      <use xlink:href="#ArialMT-62" x="211.132812"/>
      <use xlink:href="#ArialMT-65" x="266.748047"/>
      <use xlink:href="#ArialMT-72" x="322.363281"/>
      <use xlink:href="#ArialMT-20" x="355.664062"/>
      <use xlink:href="#ArialMT-6f" x="383.447266"/>
      <use xlink:href="#ArialMT-66" x="439.0625"/>
      <use xlink:href="#ArialMT-20" x="466.845703"/>
      <use xlink:href="#ArialMT-74" x="494.628906"/>
      <use xlink:href="#ArialMT-72" x="522.412109"/>
      <use xlink:href="#ArialMT-69" x="555.712891"/>
      <use xlink:href="#ArialMT-61" x="577.929688"/>
      <use xlink:href="#ArialMT-6c" x="633.544922"/>
      <use xlink:href="#ArialMT-73" x="655.761719"/>
     </g>
    </g>
   </g>
   <g id="matplotlib.axis_2">
    <g id="ytick_1">
     <g id="line2d_7">
      <path d="M 142.108594 527.831065 
L 1816.108594 527.831065 
" clip-path="url(#p6735dc147d)" style="fill: none; stroke: #ffffff; stroke-linecap: round"/>
     </g>
     <g id="text_8">
      <!-- 100 -->
      <g style="fill: #262626" transform="translate(57.535938 543.936143) scale(0.45 -0.45)">
       <use xlink:href="#ArialMT-31"/>
       <use xlink:href="#ArialMT-30" x="55.615234"/>
       <use xlink:href="#ArialMT-30" x="111.230469"/>
      </g>
     </g>
    </g>
    <g id="ytick_2">
     <g id="line2d_8">
      <path d="M 142.108594 426.925868 
L 1816.108594 426.925868 
" clip-path="url(#p6735dc147d)" style="fill: none; stroke: #ffffff; stroke-linecap: round"/>
     </g>
     <g id="text_9">
      <!-- 150 -->
      <g style="fill: #262626" transform="translate(57.535938 443.030946) scale(0.45 -0.45)">
       <defs>
        <path id="ArialMT-35" d="M 266 1200 
L 856 1250 
Q 922 819 1161 601 
Q 1400 384 1738 384 
Q 2144 384 2425 690 
Q 2706 997 2706 1503 
Q 2706 1984 2436 2262 
Q 2166 2541 1728 2541 
Q 1456 2541 1237 2417 
Q 1019 2294 894 2097 
L 366 2166 
L 809 4519 
L 3088 4519 
L 3088 3981 
L 1259 3981 
L 1013 2750 
Q 1425 3038 1878 3038 
Q 2478 3038 2890 2622 
Q 3303 2206 3303 1553 
Q 3303 931 2941 478 
Q 2500 -78 1738 -78 
Q 1113 -78 717 272 
Q 322 622 266 1200 
z
" transform="scale(0.015625)"/>
       </defs>
       <use xlink:href="#ArialMT-31"/>
       <use xlink:href="#ArialMT-35" x="55.615234"/>
       <use xlink:href="#ArialMT-30" x="111.230469"/>
      </g>
     </g>
    </g>
    <g id="ytick_3">
     <g id="line2d_9">
      <path d="M 142.108594 326.02067 
L 1816.108594 326.02067 
" clip-path="url(#p6735dc147d)" style="fill: none; stroke: #ffffff; stroke-linecap: round"/>
     </g>
     <g id="text_10">
      <!-- 200 -->
      <g style="fill: #262626" transform="translate(57.535938 342.125748) scale(0.45 -0.45)">
       <use xlink:href="#ArialMT-32"/>
       <use xlink:href="#ArialMT-30" x="55.615234"/>
       <use xlink:href="#ArialMT-30" x="111.230469"/>
      </g>
     </g>
    </g>
    <g id="ytick_4">
     <g id="line2d_10">
      <path d="M 142.108594 225.115473 
L 1816.108594 225.115473 
" clip-path="url(#p6735dc147d)" style="fill: none; stroke: #ffffff; stroke-linecap: round"/>
     </g>
     <g id="text_11">
      <!-- 250 -->
      <g style="fill: #262626" transform="translate(57.535938 241.220551) scale(0.45 -0.45)">
       <use xlink:href="#ArialMT-32"/>
       <use xlink:href="#ArialMT-35" x="55.615234"/>
       <use xlink:href="#ArialMT-30" x="111.230469"/>
      </g>
     </g>
    </g>
    <g id="ytick_5">
     <g id="line2d_11">
      <path d="M 142.108594 124.210276 
L 1816.108594 124.210276 
" clip-path="url(#p6735dc147d)" style="fill: none; stroke: #ffffff; stroke-linecap: round"/>
     </g>
     <g id="text_12">
      <!-- 300 -->
      <g style="fill: #262626" transform="translate(57.535938 140.315354) scale(0.45 -0.45)">
       <defs>
        <path id="ArialMT-33" d="M 269 1209 
L 831 1284 
Q 928 806 1161 595 
Q 1394 384 1728 384 
Q 2125 384 2398 659 
Q 2672 934 2672 1341 
Q 2672 1728 2419 1979 
Q 2166 2231 1775 2231 
Q 1616 2231 1378 2169 
L 1441 2663 
Q 1497 2656 1531 2656 
Q 1891 2656 2178 2843 
Q 2466 3031 2466 3422 
Q 2466 3731 2256 3934 
Q 2047 4138 1716 4138 
Q 1388 4138 1169 3931 
Q 950 3725 888 3313 
L 325 3413 
Q 428 3978 793 4289 
Q 1159 4600 1703 4600 
Q 2078 4600 2393 4439 
Q 2709 4278 2876 4000 
Q 3044 3722 3044 3409 
Q 3044 3113 2884 2869 
Q 2725 2625 2413 2481 
Q 2819 2388 3044 2092 
Q 3269 1797 3269 1353 
Q 3269 753 2831 336 
Q 2394 -81 1725 -81 
Q 1122 -81 723 278 
Q 325 638 269 1209 
z
" transform="scale(0.015625)"/>
       </defs>
       <use xlink:href="#ArialMT-33"/>
       <use xlink:href="#ArialMT-30" x="55.615234"/>
       <use xlink:href="#ArialMT-30" x="111.230469"/>
      </g>
     </g>
    </g>
    <g id="ytick_6">
     <g id="line2d_12">
      <path d="M 142.108594 23.305078 
L 1816.108594 23.305078 
" clip-path="url(#p6735dc147d)" style="fill: none; stroke: #ffffff; stroke-linecap: round"/>
     </g>
     <g id="text_13">
      <!-- 350 -->
      <g style="fill: #262626" transform="translate(57.535938 39.410156) scale(0.45 -0.45)">
       <use xlink:href="#ArialMT-33"/>
       <use xlink:href="#ArialMT-35" x="55.615234"/>
       <use xlink:href="#ArialMT-30" x="111.230469"/>
      </g>
     </g>
    </g>
    <g id="text_14">
     <!-- Time of approach -->
     <g style="fill: #262626" transform="translate(43.598438 485.559572) rotate(-90) scale(0.5 -0.5)">
      <defs>
       <path id="ArialMT-54" d="M 1659 0 
L 1659 4041 
L 150 4041 
L 150 4581 
L 3781 4581 
L 3781 4041 
L 2266 4041 
L 2266 0 
L 1659 0 
z
" transform="scale(0.015625)"/>
       <path id="ArialMT-70" d="M 422 -1272 
L 422 3319 
L 934 3319 
L 934 2888 
Q 1116 3141 1344 3267 
Q 1572 3394 1897 3394 
Q 2322 3394 2647 3175 
Q 2972 2956 3137 2557 
Q 3303 2159 3303 1684 
Q 3303 1175 3120 767 
Q 2938 359 2589 142 
Q 2241 -75 1856 -75 
Q 1575 -75 1351 44 
Q 1128 163 984 344 
L 984 -1272 
L 422 -1272 
z
M 931 1641 
Q 931 1000 1190 694 
Q 1450 388 1819 388 
Q 2194 388 2461 705 
Q 2728 1022 2728 1688 
Q 2728 2322 2467 2637 
Q 2206 2953 1844 2953 
Q 1484 2953 1207 2617 
Q 931 2281 931 1641 
z
" transform="scale(0.015625)"/>
       <path id="ArialMT-63" d="M 2588 1216 
L 3141 1144 
Q 3050 572 2676 248 
Q 2303 -75 1759 -75 
Q 1078 -75 664 370 
Q 250 816 250 1647 
Q 250 2184 428 2587 
Q 606 2991 970 3192 
Q 1334 3394 1763 3394 
Q 2303 3394 2647 3120 
Q 2991 2847 3088 2344 
L 2541 2259 
Q 2463 2594 2264 2762 
Q 2066 2931 1784 2931 
Q 1359 2931 1093 2626 
Q 828 2322 828 1663 
Q 828 994 1084 691 
Q 1341 388 1753 388 
Q 2084 388 2306 591 
Q 2528 794 2588 1216 
z
" transform="scale(0.015625)"/>
       <path id="ArialMT-68" d="M 422 0 
L 422 4581 
L 984 4581 
L 984 2938 
Q 1378 3394 1978 3394 
Q 2347 3394 2619 3248 
Q 2891 3103 3008 2847 
Q 3125 2591 3125 2103 
L 3125 0 
L 2563 0 
L 2563 2103 
Q 2563 2525 2380 2717 
Q 2197 2909 1863 2909 
Q 1613 2909 1392 2779 
Q 1172 2650 1078 2428 
Q 984 2206 984 1816 
L 984 0 
L 422 0 
z
" transform="scale(0.015625)"/>
      </defs>
      <use xlink:href="#ArialMT-54"/>
      <use xlink:href="#ArialMT-69" x="57.333984"/>
      <use xlink:href="#ArialMT-6d" x="79.550781"/>
      <use xlink:href="#ArialMT-65" x="162.851562"/>
      <use xlink:href="#ArialMT-20" x="218.466797"/>
      <use xlink:href="#ArialMT-6f" x="246.25"/>
      <use xlink:href="#ArialMT-66" x="301.865234"/>
      <use xlink:href="#ArialMT-20" x="329.648438"/>
      <use xlink:href="#ArialMT-61" x="357.431641"/>
      <use xlink:href="#ArialMT-70" x="413.046875"/>
      <use xlink:href="#ArialMT-70" x="468.662109"/>
      <use xlink:href="#ArialMT-72" x="524.277344"/>
      <use xlink:href="#ArialMT-6f" x="557.578125"/>
      <use xlink:href="#ArialMT-61" x="613.193359"/>
      <use xlink:href="#ArialMT-63" x="668.808594"/>
      <use xlink:href="#ArialMT-68" x="718.808594"/>
     </g>
    </g>
   </g>
   <g id="PolyCollection_1">
    <defs>
     <path id="m4cd80a67b1" d="M 218.199503 -636.780469 
L 218.199503 -300.716022 
L 235.108594 -296.465084 
L 252.017685 -304.629784 
L 268.926776 -306.47838 
L 285.835866 -309.102793 
L 302.744957 -294.680127 
L 319.654048 -283.813413 
L 336.563139 -271.983737 
L 353.47223 -256.910121 
L 370.381321 -251.602447 
L 387.290412 -254.056004 
L 404.199503 -252.472701 
L 421.108594 -250.10306 
L 438.017685 -246.009091 
L 454.926776 -237.307704 
L 471.835866 -236.61409 
L 488.744957 -234.294681 
L 505.654048 -228.832503 
L 522.563139 -228.727699 
L 539.47223 -224.324314 
L 556.381321 -221.922691 
L 573.290412 -222.847627 
L 590.199503 -219.419894 
L 607.108594 -217.555649 
L 624.017685 -218.921404 
L 640.926776 -219.585112 
L 657.835866 -215.305509 
L 674.744957 -214.549728 
L 691.654048 -207.711396 
L 708.563139 -205.81797 
L 725.47223 -204.459556 
L 742.381321 -197.138305 
L 759.290412 -194.742125 
L 776.199503 -195.088565 
L 793.108594 -194.359985 
L 810.017685 -189.253553 
L 826.926776 -189.067887 
L 843.835866 -186.75602 
L 860.744957 -188.111156 
L 877.654048 -186.103837 
L 894.563139 -183.328947 
L 911.47223 -186.586744 
L 928.381321 -189.842269 
L 945.290412 -185.652556 
L 962.199503 -185.382326 
L 979.108594 -184.002751 
L 996.017685 -185.009147 
L 1012.926776 -185.816697 
L 1029.835866 -184.72119 
L 1046.744957 -187.331941 
L 1063.654048 -190.313171 
L 1080.563139 -186.848235 
L 1097.47223 -185.343242 
L 1114.381321 -187.520242 
L 1131.290412 -185.65042 
L 1148.199503 -189.316503 
L 1165.108594 -187.964494 
L 1182.017685 -188.976891 
L 1198.926776 -187.909868 
L 1215.835866 -188.551866 
L 1232.744957 -185.636093 
L 1249.654048 -185.222799 
L 1266.563139 -182.446197 
L 1283.47223 -180.011287 
L 1300.381321 -178.038098 
L 1317.290412 -174.768616 
L 1334.199503 -174.183574 
L 1351.108594 -171.607567 
L 1368.017685 -170.263086 
L 1384.926776 -165.806414 
L 1401.835866 -165.732663 
L 1418.744957 -163.829129 
L 1435.654048 -164.314114 
L 1452.563139 -163.093109 
L 1469.47223 -161.475731 
L 1486.381321 -159.771384 
L 1503.290412 -157.51982 
L 1520.199503 -155.924421 
L 1537.108594 -155.085192 
L 1554.017685 -153.234932 
L 1570.926776 -150.334139 
L 1587.835866 -149.205264 
L 1604.744957 -145.956743 
L 1621.654048 -144.573446 
L 1638.563139 -142.767069 
L 1655.47223 -142.10885 
L 1672.381321 -139.901903 
L 1689.290412 -138.694268 
L 1706.199503 -136.344487 
L 1723.108594 -135.360105 
L 1740.017685 -132.780469 
L 1740.017685 -290.58386 
L 1740.017685 -290.58386 
L 1723.108594 -282.972418 
L 1706.199503 -283.252715 
L 1689.290412 -284.481704 
L 1672.381321 -282.305379 
L 1655.47223 -282.573974 
L 1638.563139 -284.768007 
L 1621.654048 -281.051159 
L 1604.744957 -283.730978 
L 1587.835866 -285.460447 
L 1570.926776 -287.910343 
L 1554.017685 -288.884309 
L 1537.108594 -287.464578 
L 1520.199503 -287.916935 
L 1503.290412 -288.232008 
L 1486.381321 -285.442283 
L 1469.47223 -287.128351 
L 1452.563139 -289.708629 
L 1435.654048 -298.631959 
L 1418.744957 -294.677116 
L 1401.835866 -296.298537 
L 1384.926776 -295.821165 
L 1368.017685 -297.660978 
L 1351.108594 -299.545463 
L 1334.199503 -301.436192 
L 1317.290412 -308.116325 
L 1300.381321 -306.622774 
L 1283.47223 -306.344792 
L 1266.563139 -304.205872 
L 1249.654048 -308.909708 
L 1232.744957 -314.900531 
L 1215.835866 -321.88692 
L 1198.926776 -320.107194 
L 1182.017685 -320.251034 
L 1165.108594 -320.106384 
L 1148.199503 -317.920226 
L 1131.290412 -322.716447 
L 1114.381321 -321.546234 
L 1097.47223 -321.274601 
L 1080.563139 -316.702091 
L 1063.654048 -313.802223 
L 1046.744957 -313.877383 
L 1029.835866 -315.627077 
L 1012.926776 -312.997811 
L 996.017685 -311.518176 
L 979.108594 -309.376331 
L 962.199503 -305.440491 
L 945.290412 -306.085135 
L 928.381321 -304.747675 
L 911.47223 -309.402419 
L 894.563139 -309.56579 
L 877.654048 -308.728279 
L 860.744957 -312.452375 
L 843.835866 -317.736088 
L 826.926776 -322.043601 
L 810.017685 -336.092295 
L 793.108594 -350.844006 
L 776.199503 -359.237256 
L 759.290412 -368.65171 
L 742.381321 -378.25652 
L 725.47223 -397.439702 
L 708.563139 -405.956543 
L 691.654048 -412.054809 
L 674.744957 -425.451332 
L 657.835866 -444.768959 
L 640.926776 -445.790242 
L 624.017685 -444.489662 
L 607.108594 -453.954741 
L 590.199503 -464.575833 
L 573.290412 -472.288033 
L 556.381321 -475.177257 
L 539.47223 -479.018302 
L 522.563139 -480.023436 
L 505.654048 -478.438689 
L 488.744957 -467.46036 
L 471.835866 -463.365019 
L 454.926776 -470.286384 
L 438.017685 -471.406437 
L 421.108594 -462.818823 
L 404.199503 -449.093984 
L 387.290412 -436.370747 
L 370.381321 -437.156005 
L 353.47223 -433.220642 
L 336.563139 -447.422987 
L 319.654048 -460.563984 
L 302.744957 -501.602903 
L 285.835866 -499.827021 
L 268.926776 -535.198535 
L 252.017685 -584.109315 
L 235.108594 -584.255415 
L 218.199503 -636.780469 
z
" style="stroke: #ffffff; stroke-opacity: 0.2"/>
    </defs>
    <g clip-path="url(#p6735dc147d)">
     <use xlink:href="#m4cd80a67b1" x="0" y="676.750197" style="fill: #46327e; fill-opacity: 0.2; stroke: #ffffff; stroke-opacity: 0.2"/>
    </g>
   </g>
   <g id="line2d_13">
    <path d="M 218.199503 208.001951 
L 235.108594 236.389947 
L 252.017685 232.380647 
L 268.926776 255.911739 
L 285.835866 272.285289 
L 302.744957 278.608682 
L 319.654048 304.561498 
L 336.563139 317.046835 
L 353.47223 331.684815 
L 370.381321 332.370971 
L 387.290412 331.536821 
L 404.199503 325.966854 
L 421.108594 320.289255 
L 438.017685 318.042433 
L 454.926776 322.953152 
L 471.835866 326.760642 
L 488.744957 325.872676 
L 505.654048 323.114601 
L 522.563139 322.374629 
L 539.47223 325.078888 
L 556.381321 328.200223 
L 573.290412 329.182366 
L 590.199503 334.752333 
L 607.108594 340.995002 
L 624.017685 345.044664 
L 640.926776 344.06252 
L 657.835866 346.712963 
L 674.744957 356.749666 
L 691.654048 366.867094 
L 708.563139 370.86294 
L 725.47223 375.800568 
L 742.381321 389.052784 
L 759.290412 395.053279 
L 776.199503 399.587286 
L 793.108594 404.148201 
L 810.017685 414.077273 
L 826.926776 421.194452 
L 843.835866 424.504143 
L 860.744957 426.468431 
L 877.654048 429.334138 
L 894.563139 430.302828 
L 911.47223 428.755615 
L 928.381321 429.455225 
L 945.290412 430.881351 
L 962.199503 431.338788 
L 979.108594 430.060656 
L 996.017685 428.486535 
L 1012.926776 427.342942 
L 1029.835866 426.576063 
L 1046.744957 426.145534 
L 1063.654048 424.692499 
L 1080.563139 424.975034 
L 1097.47223 423.441275 
L 1114.381321 422.216958 
L 1131.290412 422.566763 
L 1148.199503 423.131832 
L 1165.108594 422.714757 
L 1182.017685 422.136234 
L 1198.926776 422.741665 
L 1215.835866 421.530803 
L 1232.744957 426.481885 
L 1249.654048 429.683943 
L 1266.563139 433.424162 
L 1283.47223 433.572157 
L 1300.381321 434.41976 
L 1317.290412 435.307726 
L 1334.199503 438.940313 
L 1351.108594 441.173682 
L 1368.017685 442.788165 
L 1384.926776 445.936407 
L 1401.835866 445.734596 
L 1418.744957 447.497074 
L 1435.654048 445.27716 
L 1452.563139 450.349327 
L 1469.47223 452.448156 
L 1486.381321 454.143363 
L 1503.290412 453.874282 
L 1520.199503 454.829518 
L 1537.108594 455.475312 
L 1554.017685 455.690576 
L 1570.926776 457.627956 
L 1587.835866 459.417341 
L 1604.744957 461.906336 
L 1621.654048 463.937894 
L 1638.563139 462.982658 
L 1655.47223 464.408785 
L 1672.381321 465.646555 
L 1689.290412 465.16221 
L 1706.199503 466.951596 
L 1723.108594 467.583935 
L 1740.017685 465.068032 
" clip-path="url(#p6735dc147d)" style="fill: none; stroke: #46327e; stroke-width: 1.5; stroke-linecap: round"/>
   </g>
   <g id="patch_3">
    <path d="M 142.108594 569.169728 
L 142.108594 14.769728 
" style="fill: none; stroke: #ffffff; stroke-width: 1.25; stroke-linejoin: miter; stroke-linecap: square"/>
   </g>
   <g id="patch_4">
    <path d="M 1816.108594 569.169728 
L 1816.108594 14.769728 
" style="fill: none; stroke: #ffffff; stroke-width: 1.25; stroke-linejoin: miter; stroke-linecap: square"/>
   </g>
   <g id="patch_5">
    <path d="M 142.108594 569.169728 
L 1816.108594 569.169728 
" style="fill: none; stroke: #ffffff; stroke-width: 1.25; stroke-linejoin: miter; stroke-linecap: square"/>
   </g>
   <g id="patch_6">
    <path d="M 142.108594 14.769728 
L 1816.108594 14.769728 
" style="fill: none; stroke: #ffffff; stroke-width: 1.25; stroke-linejoin: miter; stroke-linecap: square"/>
   </g>
  </g>
 </g>
 <defs>
  <clipPath id="p6735dc147d">
   <rect x="142.108594" y="14.769728" width="1674" height="554.4"/>
  </clipPath>
 </defs>
</svg>
